<?xml version="1.0" standalone="no"?>
<svg viewBox="0 0 200 200" xmlns="http://www.w3.org/2000/svg">
  <path fill="#5F0CBC" d="M33,-52.8C44.9,-43.7,58,-38.1,61.1,-28.7C64.2,-19.3,57.2,-6,56.7,9.2C56.1,24.4,62,41.6,57.7,54.4C53.4,67.1,39,75.5,23.9,78.9C8.7,82.3,-7.3,80.8,-19.3,73.6C-31.3,66.5,-39.3,53.7,-49.3,42.5C-59.3,31.3,-71.3,21.7,-72.8,10.5C-74.3,-0.6,-65.3,-13.1,-60.4,-29.1C-55.4,-45.1,-54.6,-64.4,-45.3,-74.7C-35.9,-84.9,-18,-86.1,-3.7,-80.3C10.6,-74.6,21.1,-62,33,-52.8Z" transform="translate(100 100)" />
</svg>
